<?xml version="1.0" encoding="UTF-8"?>
<svg version="1.1" xmlns="http://www.w3.org/2000/svg" width="177" height="142">
<path d="M0 0 C58.41 0 116.82 0 177 0 C177 46.86 177 93.72 177 142 C118.59 142 60.18 142 0 142 C0 95.14 0 48.28 0 0 Z " fill="#F2F2F3" transform="translate(0,0)"/>
<path d="M0 0 C9.17495922 6.09364459 15.27749488 13.32514395 18.1171875 24.0703125 C19.54753281 32.63949836 16.97606852 40.46919575 12.45703125 47.7421875 C5.45897336 57.22620846 -3.39557679 62.04709372 -14.546875 65.34375 C-16.81957719 65.85201456 -16.81957719 65.85201456 -17.8828125 67.0703125 C-28.66655884 67.97214633 -39.79300749 67.79090266 -50.2265625 64.82421875 C-55.38781503 63.35933384 -58.67017961 62.53694753 -63.5703125 65.0078125 C-69.08122568 67.44871925 -73.94043188 67.47701536 -79.8828125 67.0703125 C-79.25390497 63.61918242 -77.89129624 61.36121127 -75.8828125 58.5078125 C-74.08254095 55.94156002 -72.88104387 54.06500661 -71.8828125 51.0703125 C-73.0254755 48.73691972 -73.0254755 48.73691972 -74.6953125 46.3203125 C-79.17469012 39.12836514 -80.88077859 32.50881055 -79.8828125 24.0703125 C-77.18473533 13.53650221 -70.68841755 5.56135571 -61.7109375 -0.359375 C-42.24650364 -11.16697502 -19.31113259 -11.06801125 0 0 Z " fill="#015AE2" transform="translate(101.8828125,27.9296875)"/>
<path d="M0 0 C11.51626794 3.02066044 20.76007611 9.96764017 27.24609375 19.91015625 C30.97720268 26.81722641 31.076789 34.35244018 30 42 C28.72024716 45.36077526 27.24114783 48.3234526 25.41015625 51.4140625 C23.93465857 54.11982278 23.11633996 55.91699105 23 59 C24.39445173 61.65697035 24.39445173 61.65697035 26.4375 64.125 C30 68.71232877 30 68.71232877 30 72 C24.2597925 72.38625695 19.47847517 72.56528286 14.25 69.9375 C9.23469911 67.43871051 5.96095319 68.08481854 0.63745117 69.73022461 C-6.10446539 71.75286153 -12.2855367 72.54650459 -19.3125 72.5 C-20.31361816 72.49500488 -21.31473633 72.49000977 -22.34619141 72.48486328 C-37.36127945 72.13342054 -49.07812427 66.17296079 -59.6875 55.7109375 C-61.15166372 53.80229551 -61.48728625 52.32218601 -62 50 C-60.83984375 49.89042969 -59.6796875 49.78085938 -58.484375 49.66796875 C-39.88091353 47.82319537 -23.12177037 44.52686495 -10 30 C-4.44697187 22.48950369 -0.90269086 16.09798701 -0.375 6.6875 C-0.30023438 5.43324219 -0.22546875 4.17898437 -0.1484375 2.88671875 C-0.09945312 1.93410156 -0.05046875 0.98148438 0 0 Z " fill="#0392FE" transform="translate(127,53)"/>
<path d="M0 0 C0.66 0.33 1.32 0.66 2 1 C-1.96 4.96 -5.92 8.92 -10 13 C-10 8.83248505 -7.76127698 6.85829482 -5 4 C-3.36927384 2.62294236 -1.7133562 1.27277889 0 0 Z " fill="#226FE5" transform="translate(38,29)"/>
</svg>
